<svg xmlns="http://www.w3.org/2000/svg" xmlns:xlink="http://www.w3.org/1999/xlink" width="260" zoomAndPan="magnify" viewBox="0 0 194.88 30" height="40" preserveAspectRatio="xMidYMid meet" xmlns:v="https://vecta.io/nano"><defs><clipPath id="A"><path d="M3.086 0H17v23H3.086zm0 0" clip-rule="nonzero"/></clipPath><clipPath id="B"><path d="M179 7h12.68v21H179zm0 0" clip-rule="nonzero"/></clipPath><path id="C" d="M17.721 8.619l-.266.859c-.117.355-.184.641-.203.859-.062.367-.105.719-.125 1.063l-.016 1.031c.051.648.063 1.359.031 2.141l.016 2.313a10.44 10.44 0 0 0 .344 2.188c.195.699.563 1.281 1.094 1.75.676.68 1.508 1.102 2.5 1.281l1.797.063c.664.051 1.305.051 1.922 0 .625-.043 1.203-.156 1.734-.344.539-.195.977-.531 1.313-1 .188-.195.332-.555.438-1.078a15.03 15.03 0 0 0 .266-1.766l.141-2.078.078-1.922-.062-1.875a12.17 12.17 0 0 0-.141-1.687c-.074-.52-.187-.973-.344-1.359s-.371-.664-.641-.844c-.406-.383-.891-.68-1.453-.891s-1.156-.328-1.781-.359a6.4 6.4 0 0 0-1.156-.016c-.355.031-.73.027-1.125-.016a10.12 10.12 0 0 0-1.375.094 5.64 5.64 0 0 0-1.281.297 4.34 4.34 0 0 0-1.047.547c-.305.211-.523.461-.656.75zm3.641 3.438c.25-.312.578-.523.984-.641.758-.176 1.367-.109 1.828.203.469.313.754.809.859 1.484a6.47 6.47 0 0 1 .094 1.797l-.187 1.875c-.117.492-.34.809-.672.953-.25.137-.574.23-.969.281a2.92 2.92 0 0 1-1.109-.047c-.355-.094-.664-.258-.922-.5-.25-.25-.367-.594-.344-1.031l.063-1.937c0-.613.035-1.234.109-1.859.063-.312.148-.504.266-.578zm0 0"/></defs><g clip-path="url(#A)"><g fill="#414141"><path d="M7.995 6.119c.156-.156.375-.258.656-.312l.797-.156c.563-.02.973.094 1.234.344s.438.578.531.984c.102.398.16.828.172 1.297a9.81 9.81 0 0 0 .094 1.25 19.74 19.74 0 0 0 2.141.281 7.74 7.74 0 0 0 2.125-.172c.301-.883.41-1.754.328-2.609-.074-.863-.293-1.656-.656-2.375a6.58 6.58 0 0 0-1.484-1.937 7.97 7.97 0 0 0-2.094-1.359A6.96 6.96 0 0 0 9.386.759c-.875-.062-1.758.055-2.641.344l-.797.281a3.2 3.2 0 0 0-.687.391 5.02 5.02 0 0 0-.953 1.141c-.262.43-.48.891-.656 1.391-.117.293-.211.609-.281.953a3.19 3.19 0 0 0-.031 1l-.047 4.156v3.203l.031 2.547.094 2.188c.082.813.336 1.492.766 2.031a4.53 4.53 0 0 0 1.609 1.266c.645.301 1.336.492 2.078.578a8.3 8.3 0 0 0 2.156 0c1.07-.023 2.031-.289 2.875-.797a6.5 6.5 0 0 0 2.047-1.969c.531-.801.867-1.703 1.016-2.703.156-1 .07-2.004-.25-3.016a5.09 5.09 0 0 0-.922-.141l-1.047-.031-1.031.031c-.336.023-.637.012-.906-.031a6.09 6.09 0 0 0-.109 1.469c.031.5-.059.969-.266 1.406-.199.398-.492.68-.875.844a2.6 2.6 0 0 1-1.203.188 1.78 1.78 0 0 1-1.203-1.031 5.51 5.51 0 0 1-.453-1.656L7.62 12.4l.016-2.672.078-2.203c.031-.625.066-.969.109-1.031a1.55 1.55 0 0 1 .063-.187c.031-.094.066-.156.109-.187zm0 0"/></g></g><g fill="#414141"><use xlink:href="#C"/><path d="M34.171 8.916a5.26 5.26 0 0 1-.016-.719 5.65 5.65 0 0 0-.047-.828c0-.062-.078-.098-.234-.109a3.41 3.41 0 0 0-.516.016l-.594.078-.391.047-.594.047h-.437-.437l-.578-.047-.047 7.422.078 7.172c.469-.043.852-.055 1.156-.031l.844.031c.258.008.508.004.75-.016.238-.012.523-.07.859-.172v-.109c.082-.645.125-1.285.125-1.922l-.047-1.937-.078-1.937a20.56 20.56 0 0 1 .031-2.016c.039-.52.176-.91.406-1.172a1.64 1.64 0 0 1 .781-.516 1.85 1.85 0 0 1 .891-.062c.301.043.531.105.688.188.02.023.039.031.063.031s.039.008.063.016c.145.125.258.297.344.516a3.46 3.46 0 0 1 .219.719 5.84 5.84 0 0 1 .094.828l.063.766.078 1.703V18.7l-.016 1.75.063 1.516 1.813.016c.531.008 1.141-.039 1.828-.141l-.047-2.016.031-2.391.063-2.5v-2.406a1.86 1.86 0 0 1 .563-.297c.207-.07.41-.109.609-.109.207 0 .398.023.578.063.176.031.32.078.438.141.02.023.039.031.063.031s.039.008.063.016c.145.125.258.297.344.516a3.46 3.46 0 0 1 .219.719 5.84 5.84 0 0 1 .094.828l.063.766.078 1.703v1.797l-.016 1.75.063 1.516 1.813.016c.531.008 1.141-.039 1.828-.141-.043-.656-.055-1.422-.031-2.297l.047-2.719.047-2.797-.031-2.547c-.023-.781-.09-1.445-.203-2-.105-.551-.258-.914-.453-1.094a3.52 3.52 0 0 0-1.375-.719 4.89 4.89 0 0 0-1.547-.187c-.531.023-1.055.121-1.562.297a5.6 5.6 0 0 0-1.359.703 3.36 3.36 0 0 1-.359.219c-.137.063-.25.125-.344.188-.094-.238-.195-.406-.297-.5a3.52 3.52 0 0 0-1.375-.719 4.89 4.89 0 0 0-1.547-.187c-.531.023-1.055.121-1.562.297a5.6 5.6 0 0 0-1.359.703 4.51 4.51 0 0 1-.375.234 3.37 3.37 0 0 0-.359.203zm19.745 0a5.26 5.26 0 0 1-.016-.719 5.65 5.65 0 0 0-.047-.828c0-.062-.078-.098-.234-.109a3.41 3.41 0 0 0-.516.016l-.594.078-.391.047-.594.047h-.437-.437l-.578-.047-.047 7.422.078 7.172c.469-.043.852-.055 1.156-.031l.844.031c.258.008.508.004.75-.016.238-.012.523-.07.859-.172v-.109c.082-.645.125-1.285.125-1.922l-.047-1.937-.078-1.937a20.56 20.56 0 0 1 .031-2.016c.039-.52.176-.91.406-1.172a1.64 1.64 0 0 1 .781-.516 1.85 1.85 0 0 1 .891-.062c.301.043.531.105.688.188.02.023.039.031.063.031s.039.008.063.016c.145.125.258.297.344.516a3.46 3.46 0 0 1 .219.719 5.84 5.84 0 0 1 .094.828l.063.766.078 1.703V18.7l-.016 1.75.063 1.516 1.813.016c.531.008 1.141-.039 1.828-.141l-.047-2.016.031-2.391.063-2.5v-2.406a1.86 1.86 0 0 1 .563-.297c.207-.07.41-.109.609-.109.207 0 .398.023.578.063.176.031.32.078.438.141.02.023.039.031.063.031s.039.008.063.016c.145.125.258.297.344.516a3.46 3.46 0 0 1 .219.719 5.84 5.84 0 0 1 .094.828l.063.766.078 1.703v1.797l-.016 1.75.063 1.516 1.813.016c.531.008 1.141-.039 1.828-.141-.043-.656-.055-1.422-.031-2.297l.047-2.719.047-2.797L68 11.483c-.023-.781-.09-1.445-.203-2-.105-.551-.258-.914-.453-1.094a3.52 3.52 0 0 0-1.375-.719 4.89 4.89 0 0 0-1.547-.187c-.531.023-1.055.121-1.563.297a5.6 5.6 0 0 0-1.359.703 3.36 3.36 0 0 1-.359.219c-.137.063-.25.125-.344.188-.094-.238-.195-.406-.297-.5a3.52 3.52 0 0 0-1.375-.719 4.89 4.89 0 0 0-1.547-.187c-.531.023-1.055.121-1.562.297a5.6 5.6 0 0 0-1.359.703 4.51 4.51 0 0 1-.375.234 3.37 3.37 0 0 0-.359.203zm0 0"/><use xlink:href="#C" x="52.362"/><path d="M86.565 8.916a5.26 5.26 0 0 1-.016-.719 5.65 5.65 0 0 0-.047-.828c0-.062-.078-.098-.234-.109a3.59 3.59 0 0 0-.531.016l-.578.078a2.83 2.83 0 0 1-.406.047l-.578.047h-.437-.437l-.578-.047-.047 7.422.078 7.172c.469-.043.852-.055 1.156-.031l.844.031c.258.008.508.004.75-.016.238-.012.523-.07.859-.172v-.109a17.72 17.72 0 0 0 .109-1.922l-.047-1.937-.062-1.937a20.56 20.56 0 0 1 .031-2.016c.039-.52.176-.91.406-1.172a1.64 1.64 0 0 1 .781-.516 1.85 1.85 0 0 1 .891-.062c.301.043.531.105.688.188.02.023.039.031.063.031s.035.008.047.016c.156.125.273.297.359.516.094.211.16.449.203.719.051.273.086.547.109.828l.063.766.078 1.703V18.7l-.016 1.75.047 1.516 1.828.016c.531.008 1.133-.039 1.813-.141l-.031-2.297.063-2.719.047-2.797-.031-2.547a14.43 14.43 0 0 0-.203-2c-.105-.551-.258-.914-.453-1.094a3.52 3.52 0 0 0-1.375-.719 4.89 4.89 0 0 0-1.547-.187c-.531.023-1.055.121-1.562.297a5.6 5.6 0 0 0-1.359.703 4.51 4.51 0 0 1-.375.234 3.37 3.37 0 0 0-.359.203zm0 0"/></g><g fill="#ffc107"><path d="M100.836 1.978a5.05 5.05 0 0 1-1 .031l-.984-.078-.953-.062a4.45 4.45 0 0 0-.828.016l-.062 1.266-.016 1.453.016 1.5.031 1.375h-.969a17.88 17.88 0 0 1-1.094-.031l-.078 3.563h1.109l.984-.031.016 4.125c.039 1.324.191 2.734.453 4.234a2.99 2.99 0 0 0 1.234 1.438 6.88 6.88 0 0 0 1.953.781 14.63 14.63 0 0 0 2.359.328 21.88 21.88 0 0 0 2.422.016 3.62 3.62 0 0 0 .188-.953 7.22 7.22 0 0 0 .016-1.047l-.094-1.031-.109-.906a9.21 9.21 0 0 1-1.141 0 8.46 8.46 0 0 1-1.297-.156 6.07 6.07 0 0 1-1.203-.359c-.367-.156-.648-.367-.844-.641l-.031-2.812v-3.078h4.516a4.82 4.82 0 0 1-.016-.906l.078-1.062c.02-.352.02-.68 0-.984s-.102-.531-.234-.687l-2.5.156-1.891.078-.016-.844-.016-.781zm0 0"/><use xlink:href="#C" x="89.258"/><use xlink:href="#C" x="102.131"/><path d="M132.552.728c-.18 1.762-.262 3.527-.25 5.297l.094 5.313.141 5.297-.156 5.266c.133-.039.406-.051.813-.031l1.281.047h1.266c.395-.012.641-.07.734-.187l-.078-2.844-.031-3.594.016-3.984.031-4 .063-3.609.031-2.891zm17.386 11.094c0-1.051-.199-2-.594-2.844-.387-.844-1.031-1.457-1.937-1.844a14.86 14.86 0 0 0-1.672-.266 15.3 15.3 0 0 0-1.797-.109 14.96 14.96 0 0 0-1.719.094c-.531.055-.98.125-1.344.219-.949.25-1.684.734-2.203 1.453a4.26 4.26 0 0 0-.812 2.359c-.031.844.195 1.664.688 2.453.5.781 1.297 1.355 2.391 1.719a7.69 7.69 0 0 0 1.656.5l1.516.328c.445.125.805.309 1.078.547.27.23.375.578.313 1.047.02.563-.156.953-.531 1.172a1.91 1.91 0 0 1-1.219.234c-.437-.051-.859-.219-1.266-.5-.398-.281-.605-.645-.625-1.094-.594 0-1.305-.008-2.125-.031-.812-.031-1.539-.008-2.172.063v.156c0 .773.156 1.469.469 2.094a4.5 4.5 0 0 0 1.344 1.578c.57.43 1.254.746 2.047.953.801.219 1.695.305 2.688.266 1.125.02 2.16-.172 3.109-.578a4.04 4.04 0 0 0 2.109-2.047c.363-1.062.492-1.957.391-2.687-.094-.727-.355-1.441-.781-2.141-.449-.582-1.148-1.004-2.094-1.266-.949-.27-1.969-.484-3.062-.641-.437-.145-.777-.375-1.016-.687-.23-.312-.344-.625-.344-.937s.109-.598.328-.859c.227-.258.566-.43 1.016-.516a2.3 2.3 0 0 1 .766.109c.258.086.488.215.688.391a1.77 1.77 0 0 1 .469.625c.113.23.141.461.078.688.664.137 1.367.195 2.109.172.75-.02 1.438-.078 2.063-.172zm0 0"/></g><g fill="#414141"><path d="M154.585 21.9v-.062l.031-.75.063-1.141.063-1.031.031-.484c-.148-.051-.383-.094-.703-.125a10.48 10.48 0 0 0-1.031-.047c-.367 0-.73.023-1.094.063-.355.031-.625.09-.812.172l-.016.641-.031.938v.984c.008.336.031.605.063.813h.094l3.297.031zm0 0"/><use xlink:href="#C" x="139.084"/><path d="M173.395 8.353a2.09 2.09 0 0 0-.016-.281v-.156-.187-.359c0-.039-.086-.066-.25-.078a4.54 4.54 0 0 0-.594.016l-.641.063-.422.031-.578.047h-.437-.437l-.578-.047-.047 7.422.078 7.172a7.63 7.63 0 0 1 1.203-.031l.953.031.844-.016c.27-.012.57-.07.906-.172v-.109l-.016-2.016-.016-1.875-.031-1.812-.062-1.922c-.023-.551.055-.973.234-1.266s.422-.504.734-.641c.32-.133.703-.203 1.141-.203s.922.031 1.453.094c.008 0 .133.023.375.063a5.2 5.2 0 0 1 .719.141 2.96 2.96 0 0 0 .313.109c.102.023.207.055.313.094l.25.094-.031-.937v-1.094l.016-1.344.016-1.75c0-.02-.141-.035-.422-.047s-.625-.004-1.031.016l-1.312.141c-.469.063-.887.152-1.25.266l-.828.328-.547.219zm0 0"/></g><g clip-path="url(#B)"><g fill="#414141"><path d="M182.845 14.994v-.562a3.44 3.44 0 0 1 .047-.562 4.73 4.73 0 0 1 .422-1.266 5.02 5.02 0 0 1 .75-1.094 2.06 2.06 0 0 1 .797-.422c.301-.094.609-.117.922-.078a2.15 2.15 0 0 1 .859.313 1.36 1.36 0 0 1 .563.672c.195.742.305 1.516.328 2.328l.047 2.359-.062.547a2.72 2.72 0 0 1-.141.531c-.055.156-.133.297-.234.422-.094.125-.23.219-.406.281a3.62 3.62 0 0 1-1.625.109c-.586-.094-1.047-.352-1.391-.781-.586-.695-.875-1.539-.875-2.531zm5.031 12.734a6.24 6.24 0 0 0 .75-.125c.281-.055.555-.152.828-.297s.547-.352.828-.609c.281-.25.555-.59.828-1.016.195-.312.285-.699.266-1.156a13.45 13.45 0 0 1 0-1.375l.156-8.156-.125-7.625a41.98 41.98 0 0 1-1.984-.047 11.25 11.25 0 0 0-1.953.078c-.062.094-.09.227-.078.391l.031.5a3.5 3.5 0 0 1 0 .406c-.012.105-.055.137-.125.094-.242-.539-.625-.91-1.156-1.109-.531-.207-1.109-.289-1.734-.25-1.242.074-2.195.43-2.859 1.063-.656.625-1.137 1.402-1.437 2.328-.305.918-.477 1.902-.516 2.953l-.047 2.938a12.9 12.9 0 0 0 .234 1.766 5.99 5.99 0 0 0 .578 1.641c.176.375.398.68.672.906a3.53 3.53 0 0 0 .906.563 5.25 5.25 0 0 0 1.078.297 8.7 8.7 0 0 0 1.141.078l.859-.031a7.21 7.21 0 0 0 .922-.062 4.04 4.04 0 0 0 .844-.203 1.72 1.72 0 0 0 .688-.469 4.14 4.14 0 0 0 0 1.031c.02.145.02.32 0 .531l-.062.594c-.117.539-.367.926-.75 1.156-.375.238-.762.336-1.156.297-.398-.031-.758-.199-1.078-.5s-.484-.711-.484-1.219l-.859-.094-1.047-.062c-.355-.012-.699 0-1.031.031-.324.031-.586.082-.781.156a2.71 2.71 0 0 0-.016.547 4.55 4.55 0 0 0 .078.672l.172.688a2.36 2.36 0 0 0 .234.547 4.86 4.86 0 0 0 1.75 1.563c.719.395 1.531.594 2.438.594l1.953.031c.5.02.848.008 1.047-.031zm0 0"/></g></g></svg>